<svg xmlns="http://www.w3.org/2000/svg" width="46" height="46" viewBox="0 0 46 46">
    <g data-name="Left arrow(Inactive)">
        <circle data-name="Ellipse 7" cx="23" cy="23" r="23" style="fill:#ed1c24"/>
        <g data-name="Group 140">
            <path data-name="Path 41" d="M13.316 8.219a1.035 1.035 0 0 1-.736-.305l-5.4-5.4-5.4 5.4A1.041 1.041 0 0 1 .3 6.442L6.442.3a1.041 1.041 0 0 1 1.472 0l6.137 6.137a1.041 1.041 0 0 1-.735 1.777z" transform="rotate(-90 22.218 7.96)" style="fill:#fff"/>
            <path data-name="Line 2" d="M14.575 1.082H.041A1.041 1.041 0 0 1 .041-1h14.534a1.041 1.041 0 0 1 0 2.082z" transform="translate(16.128 22.959)" style="fill:#fff"/>
        </g>
    </g>
</svg>
