<svg xmlns="http://www.w3.org/2000/svg" width="46" height="46" viewBox="0 0 46 46">
    <g data-name="Right arrow(active)" transform="translate(.134 .134)">
        <circle data-name="Ellipse 7" cx="23" cy="23" r="23" transform="translate(-.134 -.134)" style="fill:#ed1c24"/>
        <g data-name="Group 140">
            <path data-name="Path 41" d="M13.316 0a1.035 1.035 0 0 0-.736.305l-5.4 5.4-5.4-5.4A1.041 1.041 0 0 0 .3 1.777l6.142 6.137a1.041 1.041 0 0 0 1.472 0l6.137-6.137A1.041 1.041 0 0 0 13.316 0z" transform="rotate(-90 26.717 3.327)" style="fill:#fff"/>
            <path data-name="Line 2" d="M.041 1.082h14.534a1.041 1.041 0 0 0 0-2.082H.041a1.041 1.041 0 0 0 0 2.082z" transform="translate(15.122 22.825)" style="fill:#fff"/>
        </g>
    </g>
</svg>
