<svg xmlns="http://www.w3.org/2000/svg" width="61" height="72" viewBox="0 0 61 72">
    <defs>
        <clipPath id="ewtmcdzoxa">
            <path data-name="Rectangle 165" style="fill:#fff" d="M0 0h7.742v14.246H0z"/>
        </clipPath>
    </defs>
    <g data-name="Group 509" transform="translate(-264 -34)">
        <rect data-name="Rectangle 3" width="61" height="72" rx="19" transform="translate(264 34)" style="fill:#fff"/>
        <g data-name="Group 508" transform="translate(-59 -4)">
            <circle data-name="Ellipse 39" cx="13" cy="13" r="13" transform="translate(341 52)" style="fill:#ed1c24"/>
            <g data-name="Group 459">
                <g data-name="Group 458" style="clip-path:url(#ewtmcdzoxa)" transform="translate(350 58)">
                    <path data-name="Path 44" d="M2.943 9.56a5.09 5.09 0 0 1 .309-1.968 4.575 4.575 0 0 1 1.1-1.35 7.987 7.987 0 0 0 1.206-1.321 2.247 2.247 0 0 0 .422-1.3 1.907 1.907 0 0 0-.562-1.406 2.129 2.129 0 0 0-1.575-.565 1.969 1.969 0 0 0-1.5.553 3.716 3.716 0 0 0-.769 1.153L0 2.662A4.279 4.279 0 0 1 1.4.778 3.823 3.823 0 0 1 3.843 0a3.844 3.844 0 0 1 2.886 1.04 3.46 3.46 0 0 1 1.012 2.5 3.452 3.452 0 0 1-.384 1.631 6.188 6.188 0 0 1-1.227 1.54A4.8 4.8 0 0 0 5.024 8.06a4.587 4.587 0 0 0-.206 1.5zm.9 4.686a1.312 1.312 0 1 1 0-2.624 1.312 1.312 0 1 1 0 2.624" style="fill:#fff"/>
                </g>
            </g>
        </g>
        <text transform="translate(274 90)" style="font-size:12px;font-family:SohoGothicPro;fill:#ed1c24"><tspan x="0" y="0">Support</tspan></text>
    </g>
</svg>
