<svg xmlns="http://www.w3.org/2000/svg" width="200.176" height="134" viewBox="0 0 200.176 134">
    <g data-name="bouncebackbatch logo">
        <g data-name="Group 75">
            <g data-name="Group 58">
                <g data-name="Group 53">
                    <g data-name="Group 52">
                        <path data-name="Rectangle 33" transform="rotate(-89.7 111.22 -47.936)" style="fill:#e41f25" d="M0 0h33.989v1.45H0z"/>
                    </g>
                </g>
                <g data-name="Group 55">
                    <g data-name="Group 54">
                        <path data-name="Path 1" d="M2039.456 30.32 1944.015 0 1848.2 29.331l95.419 37.636z" transform="translate(-1845.102)" style="fill:#005e96"/>
                    </g>
                </g>
                <g data-name="Group 57">
                    <g data-name="Group 56">
                        <path data-name="Path 2" d="M2154.75 124.723c.022-4.306-22.41-7.888-50.094-8.041s-50.159 3.23-50.181 7.514l-.176 31.9c-.022 4.284 22.41 7.888 50.093 8.041s50.159-3.23 50.181-7.514l.176-31.9z" transform="translate(-2005.92 -91.042)" style="fill:#005e96"/>
                    </g>
                </g>
            </g>
            <g data-name="Group 74">
                <g data-name="Group 63">
                    <g data-name="Group 59">
                        <path data-name="Path 3" d="m1889.4 349.472-55.3-.308.22-35.615 4.856-4.812-4.834-.022.088-19.488 12.282-12.128 31.045.154 11.952 12.216-.132 26.321-7.6 7.514 7.58.044z" transform="translate(-1834.1 -216.219)" style="fill:#aa191a"/>
                    </g>
                    <g data-name="Group 60">
                        <path data-name="Path 4" d="m2099.541 350.384-31.045-.154-12-12.194.242-47.852 12.106-12.084 31.066.154 12.04 12.3-.241 47.677z" transform="translate(-2007.637 -216.999)" style="fill:#aa191a"/>
                    </g>
                    <g data-name="Group 61">
                        <path data-name="Path 5" d="m2332.9 351.772-55.3-.308.22-35.615 4.855-4.812-4.834-.022.088-19.488 12.281-12.128 31.045.154 11.952 12.216-.132 26.321-7.6 7.514 7.58.044z" transform="translate(-2180.159 -218.014)" style="fill:#aa191a"/>
                    </g>
                    <g data-name="Group 62">
                        <path data-name="Path 6" d="m2547.4 352.872-55.3-.308.22-35.615 4.855-4.812-4.833-.022.088-19.488 12.281-12.128 31.045.154 11.952 12.216-.132 26.321-7.6 7.514 7.58.044z" transform="translate(-2347.532 -218.872)" style="fill:#aa191a"/>
                    </g>
                </g>
                <g data-name="Group 68">
                    <g data-name="Group 64">
                        <path data-name="Path 7" d="m1903.369 363.218-44.469-.242.176-27.969 9.008-8.92 18.258.11.044-9.14-9.975-.044-.022 5.6-17.247-.088.066-11.842 9.1-8.986 26.541.132 8.832 9.008-.11 21.861-8.942 8.832-18.324-.11-.022 6.35 27.222.132zm-40.514-4.152 36.6.2.044-7.426-27.222-.132.066-14.215 20.653.11 6.613-6.547.11-18.609-6.547-6.679-23.289-.132-6.767 6.7-.022 6.262 9.382.044.022-5.6 17.84.088-.088 17.005-20.543-.11-6.679 6.635z" transform="translate(-1853.451 -235.414)" style="fill:#fff"/>
                    </g>
                    <g data-name="Group 65">
                        <path data-name="Path 8" d="m2116.517 364.252-26.563-.132-8.854-9.008.22-43.392 8.92-8.92 26.563.132 8.92 9.1-.22 43.239zm-24.893-4.065 23.267.132 6.7-6.7.22-39.987-6.635-6.767-23.267-.132-6.635 6.635-.22 40.141zm20.653-7.294-17.906-.088.2-38.647 17.906.088zm-13.952-4 10.041.044.154-30.781-10.041-.044z" transform="translate(-2026.832 -236.272)" style="fill:#fff"/>
                    </g>
                    <g data-name="Group 66">
                        <path data-name="Path 9" d="m2346.869 365.518-44.469-.242.176-27.969 9.008-8.92 18.258.11.044-9.14-9.975-.044-.022 5.6-17.247-.088.066-11.842 9.052-8.983 26.541.132 8.833 9.008-.11 21.861-8.942 8.832-18.324-.11-.022 6.35 27.222.132zm-40.514-4.153 36.6.2.044-7.426-27.222-.132.066-14.215 20.653.11 6.613-6.547.11-18.609-6.547-6.679-23.289-.132-6.767 6.7-.022 6.262 9.382.044.022-5.6 17.84.088-.088 17.005-20.543-.11-6.679 6.635z" transform="translate(-2199.51 -237.209)" style="fill:#fff"/>
                    </g>
                    <g data-name="Group 67">
                        <path data-name="Path 10" d="m2561.369 366.618-44.469-.242.176-27.969 9.008-8.92 18.258.11.044-9.14-9.975-.044-.022 5.6-17.247-.088.066-11.842 9.1-8.986 26.541.132 8.832 9.008-.11 21.861-8.942 8.832-18.323-.11-.022 6.35 27.222.132zm-40.514-4.152 36.6.2.044-7.426-27.222-.132.066-14.215L2551 341l6.613-6.547.11-18.609-6.547-6.679-23.289-.132-6.767 6.7-.02 6.267 9.382.044.022-5.6 17.84.088-.088 17.005-20.543-.11-6.679 6.635z" transform="translate(-2366.883 -238.067)" style="fill:#fff"/>
                    </g>
                </g>
                <g data-name="Group 73">
                    <g data-name="Group 69">
                        <path data-name="Path 11" d="m1868.054 342.865 7.844-7.778 19.4.11.066-13.073-13.908-.066-.022 5.6-13.314-.066.044-9.052 7.931-7.844 24.915.132 7.69 7.844-.11 20.235-7.778 7.69-19.488-.11-.044 10.282 27.222.132-.066 11.359-40.536-.22z" transform="translate(-1860.474 -242.437)" style="fill:#fff"/>
                    </g>
                    <g data-name="Group 70">
                        <path data-name="Path 12" d="m2090.1 361.244.22-41.767 7.778-7.778 24.915.132 7.778 7.931-.22 41.613-7.844 7.844-24.915-.132zm27.244-3.384.176-34.714-13.973-.066-.176 34.714z" transform="translate(-2033.855 -243.217)" style="fill:#fff"/>
                    </g>
                    <g data-name="Group 71">
                        <path data-name="Path 13" d="m2311.554 345.165 7.844-7.778 19.4.11.066-13.073-13.907-.066-.022 5.6-13.314-.066.044-9.052 7.931-7.844 24.915.132 7.69 7.844-.11 20.235-7.778 7.69-19.488-.11-.044 10.282 27.219.131-.066 11.359-40.536-.22z" transform="translate(-2206.533 -244.232)" style="fill:#fff"/>
                    </g>
                    <g data-name="Group 72">
                        <path data-name="Path 14" d="m2526.054 346.265 7.844-7.778 19.4.11.066-13.073-13.907-.066-.022 5.6-13.315-.058.044-9.052 7.931-7.844 24.915.132 7.69 7.844-.11 20.235-7.778 7.69-19.488-.11-.044 10.282 27.222.132-.066 11.359-40.536-.22z" transform="translate(-2373.906 -245.09)" style="fill:#fff"/>
                    </g>
                </g>
            </g>
        </g>
        <g data-name="Group 80">
            <g data-name="Group 77">
                <g data-name="Group 76">
                    <path data-name="Path 15" d="m2054.632 166.1-.132 24.827c.022-4.284 31.022-12 50.137-1.6 18.06-10.194 50.138-2.175 50.115 2.131l.132-23.223" transform="translate(-2006.076 -129.606)" style="fill:#005e96"/>
                </g>
            </g>
            <g data-name="Group 79">
                <g data-name="Group 78">
                    <path data-name="Path 16" d="M2154.348 254.837h-.4c0-.527-.637-1.186-1.8-1.889-7.206-4.24-32.824-8.656-48.028-.066l-.088.044-.088-.044c-16.544-8.986-41.525-4.328-48.094-.439-1.143.681-1.758 1.34-1.758 1.868h-.4c0-.7.659-1.428 1.955-2.2 3.208-1.889 11.052-4.174 20.719-4.68 7.6-.4 18.543.154 27.661 5.053 6.723-3.757 16.39-5.449 27.222-4.768 9.821.615 17.818 2.966 21.092 4.9 1.326.793 2.007 1.54 2.007 2.221z" transform="translate(-2005.452 -192.989)" style="fill:#fff"/>
                </g>
            </g>
        </g>
        <g data-name="Group 97">
            <g data-name="Group 82">
                <g data-name="Group 81">
                    <path data-name="Rectangle 34" transform="rotate(-89.7 114.933 -44.19)" style="fill:#e41f25" d="M0 0h18.038v1.45H0z"/>
                </g>
            </g>
            <g data-name="Group 84">
                <g data-name="Group 83">
                    <path data-name="Path 17" d="M2550.165 305.793a3.482 3.482 0 1 1-3.471-3.493 3.5 3.5 0 0 1 3.471 3.493z" transform="translate(-2387.405 -235.882)" style="fill:#e41f25"/>
                </g>
            </g>
            <g data-name="Group 86">
                <g data-name="Group 85">
                    <path data-name="Path 18" d="m2544.208 330.422-3.515-.022-2.659 17.115c-.791 5.053.681 10.436 3.01 10.985a7.244 7.244 0 0 0 1.23.154 5.961 5.961 0 0 0 1.274-.132c2.329-.505 3.867-5.888 3.142-10.963-.835-5.712-1.648-11.425-2.483-17.137z" transform="translate(-2383.206 -257.808)" style="fill:#e41f25"/>
                </g>
            </g>
            <g data-name="Group 88">
                <g data-name="Group 87">
                    <path data-name="Path 19" d="M2551.363 330.4a5.255 5.255 0 0 1-2.263-.549l.2-.352a4.3 4.3 0 0 0 3.933.022l.2.352a4.3 4.3 0 0 1-2.07.527z" transform="translate(-2392.008 -257.106)" style="fill:#fff"/>
                </g>
            </g>
            <g data-name="Group 90">
                <g data-name="Group 89">
                    <path data-name="Path 20" d="M2543.5 357.754c-.286-3.12 1.8-21.663 1.89-22.454l.4.044c-.022.2-2.175 19.29-1.889 22.366z" transform="translate(-2387.622 -261.632)" style="fill:#fff"/>
                </g>
            </g>
            <g data-name="Group 92">
                <g data-name="Group 91">
                    <path data-name="Path 21" d="m2565.523 356.843-.4-.022c.154-5.581-1.428-21.224-1.428-21.378l.4-.044c.005.155 1.582 15.82 1.428 21.444z" transform="translate(-2403.401 -261.71)" style="fill:#fff"/>
                </g>
            </g>
            <g data-name="Group 94">
                <g data-name="Group 93">
                    <path data-name="Path 22" d="M2559.878 360.085c-.835-3.032-.593-23.706-.593-24.585h.4c0 .22-.242 21.487.571 24.475z" transform="translate(-2399.93 -261.788)" style="fill:#fff"/>
                </g>
            </g>
            <g data-name="Group 96">
                <g data-name="Group 95">
                    <path data-name="Path 23" d="M2551.959 360.886c-1.055-6.833.615-25.31.615-25.486l.4.044c-.022.176-1.692 18.609-.637 25.4z" transform="translate(-2393.967 -261.71)" style="fill:#fff"/>
                </g>
            </g>
        </g>
        <g data-name="Group 108">
            <g data-name="Group 98">
                <path data-name="Path 24" d="M2093.3 100.8h5.536l1.3 1.3v2.615l-.9.835.9.835v2.593l-1.3 1.3h-5.536zm4.614 3.8v-1.933h-2.414v1.933zm0 3.8v-1.933h-2.414v1.933z" transform="translate(-2036.352 -78.653)" style="fill:#fff"/>
            </g>
            <g data-name="Group 99">
                <path data-name="Path 25" d="M2132.4 109v-6.921l1.274-1.274h4.24l1.3 1.3v6.877l-1.3 1.3h-4.214zm4.636-.593v-5.734h-2.436v5.727z" transform="translate(-2066.861 -78.653)" style="fill:#fff"/>
            </g>
            <g data-name="Group 100">
                <path data-name="Path 26" d="M2177.811 100.722v8.178l-1.3 1.3h-4.24l-1.271-1.3v-8.2h2.2v7.6h2.417v-7.6h2.2z" transform="translate(-2096.981 -78.575)" style="fill:#fff"/>
            </g>
            <g data-name="Group 101">
                <path data-name="Path 27" d="M2210.6 110.191V100.7h3.054l1.911 5.449V100.7h2.175v9.491h-3.054l-1.911-5.515v5.515z" transform="translate(-2127.88 -78.575)" style="fill:#fff"/>
            </g>
            <g data-name="Group 102">
                <path data-name="Path 28" d="M2251.7 109v-6.9l1.3-1.3h4.218l1.3 1.3v1.933h-2.2v-1.362h-2.418v5.756h2.417v-1.362h2.2V109l-1.3 1.3h-4.24z" transform="translate(-2159.95 -78.653)" style="fill:#fff"/>
            </g>
            <g data-name="Group 103">
                <path data-name="Path 29" d="M2290.8 100.8h5.69v1.868H2293v1.932h2.966v1.868H2293v1.932h3.515v1.868h-5.715z" transform="translate(-2190.46 -78.653)" style="fill:#fff"/>
            </g>
            <g data-name="Group 104">
                <path data-name="Path 30" d="M2325.9 100.8h5.537l1.3 1.3v2.615l-.9.835.9.835v2.593l-1.3 1.3h-5.537zm4.614 3.8v-1.933h-2.414v1.933zm0 3.8v-1.933h-2.414v1.933z" transform="translate(-2217.848 -78.653)" style="fill:#fff"/>
            </g>
            <g data-name="Group 105">
                <path data-name="Path 31" d="M2363.866 100.8h2.9l2.988 9.491h-2.307l-.549-1.868h-3.142l-.549 1.868h-2.307zm2.46 5.734-.989-3.34-1.011 3.34z" transform="translate(-2245.158 -78.653)" style="fill:#fff"/>
            </g>
            <g data-name="Group 106">
                <path data-name="Path 32" d="M2404.6 109v-6.9l1.3-1.3h4.219l1.3 1.3v1.933h-2.2v-1.362h-2.419v5.756h2.417v-1.362h2.2V109l-1.3 1.3h-4.24z" transform="translate(-2279.257 -78.653)" style="fill:#fff"/>
            </g>
            <g data-name="Group 107">
                <path data-name="Path 33" d="M2443.7 100.8h2.2v4.021l2.307-4.021h2.526l-2.614 4.79 2.68 4.68h-2.527l-2.373-4.109v4.109h-2.2z" transform="translate(-2309.766 -78.653)" style="fill:#fff"/>
            </g>
        </g>
        <g data-name="Group 110">
            <g data-name="Group 109">
                <path data-name="Path 34" d="M2089.6 163.4h7.909l1.846 1.846V169l-1.3 1.186 1.3 1.186v3.735l-1.846 1.867h-7.909zm6.613 5.449v-2.769h-3.471v2.768zm0 5.449v-2.768h-3.471v2.77z" transform="translate(-2033.465 -127.5)" style="fill:#fff"/>
            </g>
        </g>
        <g data-name="Group 112">
            <g data-name="Group 111">
                <path data-name="Path 35" d="M2144.2 163.4h4.153l4.262 13.578h-3.3l-.769-2.658h-4.482l-.769 2.658H2140zm3.493 8.239-1.428-4.768-1.428 4.768z" transform="translate(-2072.791 -127.5)" style="fill:#fff"/>
            </g>
        </g>
        <g data-name="Group 118">
            <g data-name="Group 113">
                <path data-name="Path 36" d="M2203.752 163.4v2.68h-2.966v10.9h-3.12v-10.9h-2.966v-2.68z" transform="translate(-2115.473 -127.5)" style="fill:#fff"/>
            </g>
            <g data-name="Group 114">
                <path data-name="Path 37" d="M2243.4 175.132v-9.887l1.845-1.846h6.042l1.867 1.868v2.768h-3.142V166.1h-3.471v8.217h3.471v-1.933h3.142v2.768l-1.845 1.848h-6.064z" transform="translate(-2153.473 -127.5)" style="fill:#fff"/>
            </g>
            <g data-name="Group 115">
                <path data-name="Path 38" d="M2299.3 163.4h3.142v5.449H2306V163.4h3.142v13.578H2306v-5.449h-3.559v5.449h-3.141z" transform="translate(-2197.092 -127.5)" style="fill:#fff"/>
            </g>
            <g data-name="Group 116">
                <path data-name="Path 39" d="M2383.1 175.21v-9.887l1.823-1.824h6.064l1.868 1.868v9.843l-1.868 1.868h-6.042zm6.613-.835v-8.2h-3.471v8.2z" transform="translate(-2262.48 -127.578)" style="fill:#fff"/>
            </g>
            <g data-name="Group 117">
                <path data-name="Path 40" d="M2440 163.4h8.151v2.68h-5.009v2.768h4.153v2.68h-4.153v5.449H2440z" transform="translate(-2306.879 -127.5)" style="fill:#fff"/>
            </g>
        </g>
    </g>
</svg>
