<?xml version="1.0" encoding="UTF-8"?><svg id="a" xmlns="http://www.w3.org/2000/svg" viewBox="0 0 1146.62 768.77"><defs><style>.b{fill:#e20613;}.b,.c,.d{fill-rule:evenodd;}.c{fill:#ad0f0a;}.d{fill:#005a99;}</style></defs><g><path class="d" d="M756.45,292.37c20.7,0,37.03-13.94,37.03-31.07s-16.32-31.47-37.03-31.47-36.63,13.94-36.63,31.47,16.32,31.07,36.63,31.07h0Z"/><path class="d" d="M710.27,455.29c0-9.56-6.77-17.53-15.53-17.53-23.49-.4-86.39,0-86.39,0,0,0,.8-85.64,.8-137.42h0c0-10.36,.4-29.08,.4-35.05-.4-21.11-31.85-27.88-49.77-28.68-15.93-.8-15.13,13.15-15.13,13.15v211.11c0,13.54,14.73,16.73,14.73,16.73h150.89v-22.31h0Z"/><path class="d" d="M918.49,309.9c-6.77-72.5,35.43-68.91,51.36-65.33,5.57,.8,5.97-5.18,5.57-6.77-.4-5.97-3.58-10.75-7.96-14.74-15.13-12.75-43.4-11.15-43.4-11.15-51.36,0-67.28,38.24-67.28,69.31,0,16.33-1.59,28.68-1.59,28.68h-15.53c-9.16,0-12.74,9.16-12.74,13.94v11.55h27.87v78.87c-55.74,47-66.89,20.31-66.89,8.76v-85.64c0-21.11-30.26-27.88-48.17-28.68-17.92-.8-15.13,13.14-15.13,13.14v105.16c0,36.65,14.33,53.77,49.77,53.77s68.08-27.48,81.22-42.22c0,0,0,28.68,.4,50.19,0,3.19,.4,5.58,.4,7.57,.8,13.54,14.33,11.95,14.33,11.95,48.97,0,47.78-34.65,47.78-34.65v-137.42h30.66c5.97,0,16.32-2.79,16.32-14.34,0-7.17-.4-11.95-.4-11.95h-46.58Z"/><path class="d" d="M1138.65,429.8c-17.12,10.75-37.42,19.12-68.48,19.12-29.06,0-50.17-16.73-50.17-50.99,0-15.54,9.56-54.17,46.98-54.17,14.33-.4,22.69,9.16,22.69,21.11,0,15.93-17.92,35.05-56.14,37.44,5.57,16.73,23.89,20.71,39.02,20.71,22.29,0,75.64-15.93,71.26-66.12-3.19-39.04-39.81-50.59-70.07-50.59-70.07,0-123.82,43.42-118.64,101.97,5.57,64.13,62.51,72.5,100.33,72.5s72.86-16.33,85.6-34.26c2.79-3.58,5.57-8.36,5.57-12.35,0-4.38-3.58-6.77-7.96-4.38h0Z"/></g><g><polygon class="b" points="646.96 166.5 646.96 101.57 596 101.57 596 166.5 544.64 166.5 544.64 3.98 596 3.98 596 65.33 646.96 65.33 646.96 3.98 698.72 3.98 698.72 166.5 646.96 166.5"/><path class="b" d="M816.97,78.47h0c0-33.46-7.17-41.03-30.66-41.03h-12.74v96h12.74c23.49,0,30.66-8.36,30.66-41.82v-13.14Zm-32.25,91.22c-22.69,0-39.02-.8-61.31-3.19V3.98c22.3-1.99,37.82-2.79,61.31-2.79,56.93,0,82.81,21.91,82.81,77.28v13.14c0,55.77-25.08,78.07-82.81,78.07h0Z"/><polygon class="b" points="938.79 39.04 938.79 68.11 1000.9 68.11 1000.9 100.38 938.79 100.38 938.79 166.5 887.83 166.5 887.83 3.98 1005.68 3.98 1005.68 39.04 938.79 39.04"/><path class="b" d="M1091.28,170.48c-50.96,0-76.44-17.93-76.44-77.67v-15.14c0-59.35,25.48-77.67,76.44-77.67,13.14,0,39.02,2.79,47.78,5.18V39.04c-11.94-.8-27.07-1.59-41.41-1.59-20.7,0-31.05,6.37-31.05,40.23v15.14c0,34.26,10.35,40.63,31.05,40.63,14.33,0,29.46-.8,41.41-1.59v33.86c-8.76,2.79-34.64,4.78-47.78,4.78h0Z"/></g><polygon class="c" points="474.97 477.59 474.97 477.59 340 342.56 135.37 342.56 135.37 137.42 0 1.99 0 1.99 0 477.59 474.97 477.59"/><polygon class="b" points="135.37 137.42 340 137.42 340 342.56 474.97 477.59 474.97 1.99 0 1.99 135.37 137.42"/><g><path class="b" d="M123.42,697.07h0c12.34-14.74,11.94-18.32,11.94-18.32,0,0-2.79-9.56-13.54-10.36-10.75,0-23.09,12.35-25.48,26.69-2.39,14.74,9.56,23.1,27.07,1.99h0Zm133.37-60.55c2.39,1.59-3.58,15.14-3.58,15.14-25.48-6.37-48.17,28.28-52.16,40.63-4.78,13.54-4.38,24.7-4.38,24.7l-10.35,3.59c-5.18-1.99-.4-21.91-.4-21.91-46.58,44.21-51.36-1.19-51.36-1.19-21.5,27.48-52.55,30.27-50.96,3.98,1.19-24.3,25.48-41.03,41.41-41.03,16.32,.8,22.69,12.75,22.69,12.75-1.19,5.58-8.36,35.45,10.75,35.05,7.57,0,28.67-19.92,28.67-19.92,0,0,.8-4.38,.8-9.56,.4-5.58,0-13.54,0-13.54,0,0,7.57-3.19,11.15-2.79,3.98,.4,2.39,4.38,2.39,4.38,0,0-5.57,17.92-5.57,19.12s.4,1.19,.4,1.19c25.08-53.38,57.73-51.78,60.52-50.59h0Z"/><path class="b" d="M775.16,674.77h0c-4.38,5.58-5.57,14.34-5.57,14.34,6.37-.8,13.93-2.79,18.71-4.78,9.56-3.58,11.15-15.53,3.58-16.73-6.37-1.59-11.94,1.19-16.72,7.17h0Zm38.62,25.89c1.19,.4,3.58,3.98,3.19,5.98-1.59,4.78-17.12,11.95-33.04,11.95-10.35-.4-27.87-3.98-26.28-23.5,.4-5.58,1.59-10.36,3.58-13.94,5.97-13.15,16.72-18.32,23.49-20.31,3.18-1.19,8.36-1.59,11.55-1.19,5.97,.4,14.73,2.79,13.93,12.75-1.19,15.93-40.61,22.31-40.61,22.31-.4,1.99,.8,14.74,19.11,15.93,15.93,1.19,23.89-9.96,25.08-9.96h0Z"/><path class="b" d="M934.41,627.37c2.39,4.38,0,8.36-4.38,11.55-4.78,3.59-11.94,3.59-13.93,0-1.99-3.98,.8-9.56,5.57-12.75,5.18-3.19,10.75-2.39,12.74,1.19h0Z"/><path class="b" d="M872.31,662.42c6.37-1.59,19.51-7.17,17.12-.8-2.79,5.98-5.97,24.7-6.77,32.66-.8,7.57-4.78,35.45-6.37,45.41-1.99,9.96-11.15,27.88-27.07,28.68-1.19,.4-1.99,.4-3.19,.4h-.4c-9.95,0-16.72-3.19-18.31-7.97-1.99-5.18,2.39-14.34,4.38-13.15,1.59,.8,8.36,13.94,19.11,13.15,10.75-.4,13.93-17.13,15.93-34.66,1.59-17.53,4.78-59.35,5.57-63.73h0Z"/><path class="b" d="M923.66,666s-22.29,40.23-3.19,41.03c16.32,.4,29.06-15.14,29.06-15.14,0,0,7.17-27.48,8.76-28.28,1.59-.8,11.15,2.79,10.35,5.58-.8,3.19-16.72,35.05-.8,37.44,16.32,2.39,27.47-15.54,27.47-15.54,0,0,10.35-27.48,11.55-27.88,.8-.4,12.74,1.59,11.94,6.77-1.59,8.76-15.53,24.7-16.32,27.09-4.78,9.16-8.36,26.69-9.55,37.44-1.59,9.96-.4,28.28-2.39,30.67-1.59,2.39-9.95,3.19-13.14,0,0,0,1.99-21.51,5.57-36.25,3.98-14.34,7.17-23.1,7.17-23.1,0,0-16.32,14.74-28.27,12.75-12.34-1.59-12.34-15.93-12.34-15.93,0,0-17.12,16.33-34.24,15.53-17.12-.8-15.13-21.11-13.93-25.89,.8-4.78,4.78-21.91,8.36-27.88,1.99-2.79,4.38-1.99,6.77-1.59,2.79,1.2,7.17,3.19,7.17,3.19h0Z"/><path class="b" d="M1068.19,703.84h0c10.35-9.56,11.55-23.9,5.57-31.07-5.57-6.37-18.71-6.37-30.26,3.58-10.35,9.16-11.94,24.3-6.77,29.87,6.77,7.57,21.1,6.77,31.45-2.39h0Zm19.51-32.27c7.17,12.75-1.19,31.47-19.11,41.82-17.52,10.76-38.22,8.76-45.79-3.98-5.97-10.36,.8-31.87,18.71-42.22,20.3-11.15,38.62-8.36,46.18,4.38h0Z"/><path class="b" d="M1136.27,724.95c-3.19,9.96-18.31,4.78-19.51,0-4.78-15.93,22.69-13.94,19.51,0h0Z"/><path class="b" d="M1.19,714.6c-.8,0-1.19-1.19-1.19-1.99,0-3.19,1.19-11.55,7.57-11.55,8.36,0,22.3,11.15,36.63,9.16,0,0,13.94,0,14.73-12.75,1.19-12.75-14.33-23.1-21.1-28.28-6.77-5.58-23.49-18.32-21.5-34.65,2.79-19.92,26.28-23.5,34.24-23.5,10.75-.4,31.85,4.38,29.86,15.53-.4,3.58-4.78,7.97-9.16,9.16-.8-1.99-1.59-2.39-2.39-3.58-3.18-4.38-10.35-14.34-22.3-13.54-14.73,.8-16.72,13.54-16.72,17.92,0,5.58,2.39,11.95,23.09,27.88,19.51,15.14,21.1,25.09,19.51,33.06-1.19,7.57-11.94,22.31-36.23,22.31-19.91,.4-31.45-3.98-35.04-5.18h0Z"/><path class="b" d="M580.47,697.07h0c12.74-14.74,13.14-18.32,13.14-18.32,0,0-3.98-9.56-14.73-10.36-10.75,0-23.09,12.35-25.48,26.69-2.39,14.74,9.56,22.31,27.07,1.99h0Zm-232.51-33.46c0,2.79-21.9,43.82,.8,44.21,15.53,0,40.61-22.7,40.61-22.7,0,0,5.18-19.52,5.18-19.92-.4-.4-13.93,.8-14.33-.4-.4-.8,1.19-6.77,1.99-7.17,.8-.4,13.54,.4,13.54-.4s1.59-13.94,0-17.13c0,0,7.17-5.58,13.54-4.38,2.39,.8,4.78,2.79-.8,20.71,0,0,15.13-.4,21.5-2.79,1.19,1.19,2.39,5.58,0,8.36s-23.49,2.39-23.49,2.39c0,0-7.96,21.91-8.76,35.85-.4,3.58,1.99,9.96,11.55,9.16,12.74-.8,28.66-14.34,34.24-21.11,0,0,5.97-27.88,9.16-48.2,.4-5.18,1.59-17.53,.4-19.92,0,0,7.56-5.18,13.93-3.98,1.99,.8,3.19,4.38-1.59,23.9-2.79,16.33-12.74,56.96-10.75,61.74,2.79-3.98,33.04-41.82,42.6-43.82,5.18-.8,8.76,4.38,7.96,7.97-.4,3.19-8.76,41.43,11.55,41.03,15.53,0,27.07-20.31,27.07-20.31,0,0,11.15-26.29,38.62-26.29,16.32,.8,23.49,12.75,23.49,12.75,0,0-7.56,33.46,12.74,34.26,13.14,0,21.5-10.36,21.5-10.36,0,0,5.18,3.58,5.18,4.78s-14.73,15.54-33.04,15.14c-17.92,0-19.51-19.92-19.51-19.92,0,0-17.92,20.71-37.82,22.31-13.94,.8-14.33-17.53-14.33-17.53,0,0-11.15,15.14-30.66,15.14s-21.9-21.11-19.11-41.82c.4-1.19-3.98,1.19-7.56,4.78-3.58,3.19-16.72,16.73-24.68,36.65-1.19,1.19-14.73-.8-14.73-3.19s.8-13.14,0-13.14c-.8-.4-21.5,17.92-44.19,18.72-20.31,.4-12.34-21.51-12.34-21.51,0,0-22.29,17.92-42.2,19.12-19.91,1.19-17.52-19.92-17.52-19.92,0,0-17.12,20.71-34.24,19.92-23.89-.8-7.56-44.61-1.59-53.77,0,0,0-.4,.4-.4,1.99,0,14.33-2.39,13.93-.4,0,2.79-5.97,8.76-9.16,15.54-3.18,7.17-11.94,24.7,3.19,27.09,14.73,2.39,27.07-23.1,27.07-23.1,0,0,4.38-13.15,6.77-18.72,4.38-1.19,13.93-1.59,13.93,.8h0Z"/><path class="b" d="M706.68,638.92c-2.79,17.92-9.16,56.56-9.16,58.16-.4,1.99,.8,1.19,.8,1.19,8.76-15.93,37.03-42.62,44.59-42.62,7.17,0,5.57,9.96,5.57,9.96-7.96-1.99-33.04,21.11-33.04,21.11,0,0,5.57,5.98,16.72,14.34,10.75,8.76,25.48,13.54,25.48,14.74s-7.17,6.77-9.95,7.17c-6.77,.8-38.22-29.48-38.22-29.48-7.96,7.17-11.94,20.31-12.74,21.91-.4,1.59-6.77,1.19-9.95,1.19-2.79-.4,5.97-48.99,8.36-79.67,.4-6.37,.4-14.74-.8-16.73,0,0,7.17-5.97,13.54-4.78,2.39,.8,0,12.75-1.19,23.5h0Z"/><path class="b" d="M1135.47,685.52c.8,10.36,5.57,9.56,4.38,11.95-1.59,3.98-5.18,6.37-8.76,5.97-9.16-1.2-8.36-21.11-6.37-34.65,1.99-17.13,5.57-28.28,6.77-39.43,.4-5.97,.4-13.94-.8-15.54,0,0,8.76-5.58,14.73-4.38,2.39,.8,0,11.95-1.59,21.91-1.19,8.76-10.75,39.43-8.36,54.17h0Z"/><path class="b" d="M893.8,624.58c2.79,4.38,0,7.97-4.38,11.15-4.78,3.58-11.94,3.98-13.94,0-1.99-3.58,.8-9.16,5.97-12.35,4.78-3.19,10.35-2.39,12.34,1.19h0Z"/></g></svg>