<svg xmlns="http://www.w3.org/2000/svg" width="18" height="18" viewBox="0 0 18 18">
    <path d="M19 3H5a2 2 0 0 0-2 2v14a2 2 0 0 0 2 2h14a2 2 0 0 0 2-2V5a2 2 0 0 0-2-2zM9 17H6.477v-7H9zM7.694 8.717a1.2 1.2 0 0 1-1.286-1.2 1.222 1.222 0 0 1 1.371-1.2 1.2 1.2 0 0 1 1.286 1.2 1.222 1.222 0 0 1-1.371 1.2zM18 17h-2.442v-3.826c0-1.058-.651-1.3-.9-1.3s-1.058.163-1.058 1.3V17h-2.518v-7h2.523v.977A2.281 2.281 0 0 1 15.8 10c1.221 0 2.2.977 2.2 3.174z" transform="translate(-3 -3)" style="fill:#ed1c24"/>
</svg>
