<svg xmlns="http://www.w3.org/2000/svg" width="20" height="16.001" viewBox="0 0 20 16.001">
    <path d="M22 4a13.158 13.158 0 0 1-3.265 1.276c-.027.007-.049.016-.075.023A4.5 4.5 0 0 0 11 8.5c0 .131-.011.372 0 .5a9.885 9.885 0 0 1-7.735-4 6.089 6.089 0 0 0-.286 2.032c0 1.4 1.1 2.777 2.8 3.63a4.1 4.1 0 0 1-1.02.139A2.686 2.686 0 0 1 3 10.183v.051c0 1.958 2.078 3.291 3.926 3.662a3.583 3.583 0 0 1-1.5.243c-.26 0-1.18-.119-1.426-.165.514 1.6 2.368 2.507 4.135 2.539C6.753 17.6 5.794 18 2.964 18H2a12.121 12.121 0 0 0 6.347 2C15.777 20 20 14.337 20 9v-.5c0-.018-.008-.053-.008-.08 0-.136-.006-.263-.009-.329A8.217 8.217 0 0 0 22 6a8.07 8.07 0 0 1-2.32.636A6.057 6.057 0 0 0 22 4z" transform="translate(-2 -3.999)" style="fill:#ed1c24"/>
</svg>
